<?xml version="1.0" encoding="iso-8859-1"?>
<!-- Generator: Adobe Illustrator 17.1.0, SVG Export Plug-In . SVG Version: 6.00 Build 0)  -->
<!DOCTYPE svg PUBLIC "-//W3C//DTD SVG 1.1//EN" "http://www.w3.org/Graphics/SVG/1.1/DTD/svg11.dtd">
<svg version="1.1" id="Capa_1" xmlns="http://www.w3.org/2000/svg" xmlns:xlink="http://www.w3.org/1999/xlink" x="0px" y="0px"
	 viewBox="0 0 411.248 411.248" style="enable-background:new 0 0 411.248 411.248;" xml:space="preserve">
<g>
	<path d="M360.602,378.504l-80.386-171.031c-2.34-4.978-7.427-5.859-11.306-1.959l-21.924,22.043l-15.388-33.085
		c-2.32-4.987-8.52-7.747-13.778-6.135l-23.512,7.214c-5.259,1.613-13.809,1.446-19-0.369l-25.074-8.773
		c-5.19-1.815-11.154,0.858-13.253,5.942l-86.5,209.653c-2.098,5.084,0.686,9.244,6.186,9.244h265.756c5.5,0,8.103-4.08,5.783-9.067
		l-4.748-10.207c0,0-2.75-4.419,2.625-4.419c7.192,0,28.771,0,28.771,0C360.356,387.555,362.942,383.482,360.602,378.504z
		 M145.432,211.198c2.098-5.084,8.061-7.758,13.253-5.941l16.318,5.709c5.191,1.816,13.74,1.982,18.999,0.369l15.727-4.825
		c5.259-1.613,11.458,1.146,13.777,6.134l23.329,50.157c1.123,2.47,0.35,4.02-0.113,4.715c-3.239,4.864-6.28,12.03-10.091,21.021
		c-2.527,5.961-7.34,19.9-9.3,19.9c-1.04,0-2.401-6.331-3.345-9.091c-4.391-12.838-9.854-28.814-23.802-28.814
		c-11.597,0-19.675,7.727-25.572,13.368c-1.764,1.688-5.215,6.063-6.209,5.366c-0.983-0.689-3.33-7.501-4.657-11.05
		c-4.84-12.939-10.863-29.043-25.206-29.043c-2.024,0-3.948,0.16-5.775,0.448c-1.204,0.19-3.557,0.441-2.12-2.585L145.432,211.198z
		 M298.905,396.248H79.083c-5.5,0-8.283-4.16-6.186-9.244l45.636-110.607c0.965-1.707,7.425-12.224,20.009-12.224
		c3.938,0,8.634,12.554,11.156,19.298c4.105,10.976,7.982,21.343,17.434,21.343c7.319,0,12.673-5.121,17.851-10.074
		c4.95-4.735,9.627-9.208,15.204-9.208c3.224,0,7.862,13.563,9.608,18.668c3.85,11.257,7.485,21.889,17.157,21.889
		c10.055,0,15.69-13.296,23.491-31.697c1.561-3.685,2.286-4.78,3.818-8.838c1.365-3.615,2.745-0.888,2.745-0.888l47.682,102.516
		C307.008,392.168,304.405,396.248,298.905,396.248z M331.231,372.555h-5.884c-5.5,0-11.921-4.069-14.268-9.044l-53.063-112.438
		c-2.347-4.975-1.095-12.234,2.784-16.135l3.643-3.662c3.879-3.9,8.966-3.019,11.306,1.959l61.228,130.27
		C339.317,368.482,336.731,372.555,331.231,372.555z"/>
	<path d="M116.146,135.98c9.282,0,17.444-2.061,24.362-6.138c2.02,4.739,4.77,11.608,6.837,16.769
		c1.602,4.002,3.13,7.817,4.359,10.793c3.192,7.722,9.395,9.781,12.556,9.781h35.666c0.849,0,8.394-0.274,12.049-9.778
		c5.172-13.452,9.202-23.292,11.543-28.556c7.662,3.854,14.39,7.129,24.097,7.129c25.99,0,47.135-19.85,47.135-44.249
		s-21.145-44.25-47.135-44.25c-6.899,0-13.741,1.433-19.958,4.162c-3.646-2.23-11.127-7.752-13.789-10.105
		C207.737,17.371,184.192,0,157.209,0C126.23,0,100.826,22.527,99.09,50.825C78.633,57.947,69.083,70.999,69.083,91.73
		C69.083,116.13,90.195,135.98,116.146,135.98z M104.978,61.515c1.713-0.539,6.017-3.59,6.017-7.594
		c0-23.115,20.731-41.921,46.214-41.921c21.984,0,41.043,14.18,45.317,33.717c0.413,1.887,0.712,3.249,11.229,10.938
		c10.377,7.586,12.24,7.575,13.902,7.587c1.008-0.001,2.006-0.239,2.885-0.69c5.193-2.663,11.097-4.071,17.073-4.071
		c19.373,0,35.135,14.468,35.135,32.25c0,17.782-15.762,32.249-35.135,32.249c-7.087,0-11.924-2.436-19.247-6.122
		c-1.485-0.748-3.042-1.531-4.703-2.338c0,0-0.705-0.609-2.655-0.609c-4.25,0-5.892,3.524-7.63,7.256
		c-1.043,2.238-2.412,5.408-4.07,9.422c-3.421,8.278-7.108,17.802-8.535,21.512c-0.56,1.455-1.141,1.94-1.372,2.085h-34.77
		c-0.417-0.153-1.185-0.785-1.838-2.365c-1.216-2.94-2.726-6.713-4.31-10.669c-2.25-5.621-4.577-11.434-6.499-15.976
		c-3.37-7.965-4.765-11.262-9.282-11.262c-2.244,0-3.982,1.487-3.982,1.487c-5.791,5.029-13.386,7.579-22.575,7.579
		c-19.334,0-35.063-14.467-35.063-32.249C81.083,75.399,87.782,66.928,104.978,61.515z"/>
</g>
<g>
</g>
<g>
</g>
<g>
</g>
<g>
</g>
<g>
</g>
<g>
</g>
<g>
</g>
<g>
</g>
<g>
</g>
<g>
</g>
<g>
</g>
<g>
</g>
<g>
</g>
<g>
</g>
<g>
</g>
</svg>
