<?xml version="1.0" encoding="iso-8859-1"?>
<!-- Generator: Adobe Illustrator 19.0.0, SVG Export Plug-In . SVG Version: 6.00 Build 0)  -->
<svg version="1.1" id="Layer_1" xmlns="http://www.w3.org/2000/svg" xmlns:xlink="http://www.w3.org/1999/xlink" x="0px" y="0px"
	 viewBox="0 0 512 512" style="enable-background:new 0 0 512 512;" xml:space="preserve">
<g>
	<g>
		<g>
			<path d="M143.012,353.804c-2.101-31.187-34.306-57.709-51.513-83.04c-2.328-3.426-6.99-4.315-10.42-1.989
				c-3.426,2.328-4.316,6.992-1.989,10.42c5.375,7.911,12.096,15.916,18.594,23.658c14.357,17.103,29.204,34.788,30.36,51.96
				c2.881,42.745,28.583,56.484,34.72,56.484c8.439,0,10.433-11.962,2.346-14.626C164.914,396.603,145.398,389.208,143.012,353.804z
				"/>
			<path d="M504.5,496.992H484.04c0.57-2.622,0.442-3.466,0.442-12.983c10.612-2.273,18.593-11.72,18.593-23v-22.254
				c0-12.933-10.492-23.459-23.411-23.52c-0.097-0.25-18.653-48.298-18.759-48.543c-1.429-3.298-7.339-14.061-23.414-14.061h-63.369
				c-16.074,0-21.984,10.763-23.413,14.061c-0.1,0.231-18.765,48.556-18.856,48.791c-11.358,1.659-20.108,11.462-20.108,23.273
				v22.254c0,10.227,6.561,18.945,15.693,22.179c0,10.571-0.119,11.221,0.442,13.804h-51.056
				c-25.942-24.891-24.927-52.572-24.874-53.687c2.611-40.316-22.228-67.07-40.367-86.606c-2.817-3.036-7.564-3.214-10.6-0.394
				c-3.036,2.818-3.212,7.563-0.393,10.6c21.861,23.548,38.422,44.054,36.387,75.481c-0.075,1.295-1.322,27.882,19.631,54.607
				H27.072c-6.655,0-12.071-5.415-12.071-12.071V127.323c10.091-0.445,30.433,1.817,39.901,25.487
				c24.42,61.047,33.077,69.13,72.122,95.603c20.954,14.185,35.467,26.924,37.507,58.669c1.085,16.882,10.483,30.396,18.55,40.283
				c2.62,3.209,7.342,3.688,10.554,1.07c3.21-2.619,3.689-7.344,1.07-10.554c-9.882-12.111-14.57-21.906-15.204-31.762
				c-1.676-26.103-11.214-42.105-23.594-54.104l3.041-13.24l20.64-8.835c9.034-3.865,13.218-14.302,9.35-23.341
				c-3.408-7.959-11.844-12.045-19.807-10.445l0.694-2.894c10.594,0.035,20.202-4.289,27.001-11.193
				c26.651,3.511,51.591-16.326,53.224-44.023c0.243-4.135-2.911-7.685-7.047-7.929c-4.107-0.24-7.685,2.911-7.928,7.047
				c-1.167,19.955-20.116,33.963-39.404,29.464c-2.885-0.674-5.891,0.414-7.68,2.772c-3.566,4.704-8.833,7.734-14.508,8.607
				l8.306-34.636c2.283-9.532-3.611-19.146-13.143-21.43c-9.535-2.285-19.146,3.61-21.433,13.142l-6.328,26.392
				c-1.194,0.362-5.396,2.887-11.578,1.405c-4.245-1.019-7.839-3.628-10.122-7.349c-6.416-10.469,2.685-15.647-3.614-21.483
				c-14.771-13.689-7.522-38.417,12.29-41.961c3.232-0.578,5.714-3.192,6.121-6.451c1.805-14.402,17.284-22.72,30.283-16.27
				c2.725,1.351,5.995,0.922,8.28-1.083c21.187-18.595,53.935,3.296,43.769,30.354c-1.278,3.395,0.057,7.219,3.17,9.081
				c3.825,2.287,7.083,5.301,9.685,8.959c2.398,3.375,7.081,4.168,10.459,1.767c3.376-2.399,4.167-7.082,1.767-10.459
				c-2.651-3.73-5.773-7.006-9.322-9.787c8.534-37.866-34.097-66.066-65.647-44.142c-19.567-6.609-40.769,4.616-46.292,24.528
				c-26.791,8.571-36.241,41.759-17.92,63.176c-3.526,20.651,13.924,38.888,34.686,36.347l-12.154,50.688
				c-2.105-1.433-4.215-2.893-6.3-4.395c-54.103-38.954-35.686-99.124-87.848-110.648c-13.159-2.907-24.255-0.51-24.72-0.406
				C2.441,114.108,0,117.151,0,120.667V484.92c0,14.928,12.145,27.072,27.072,27.072c8.947,0,465.094,0,477.428,0
				c4.143,0,7.5-3.357,7.5-7.5C512,500.35,508.642,496.992,504.5,496.992z M161.797,138.584c0.856-3.567,6.256-2.276,5.401,1.292
				l-16.027,66.84c-1.436,5.991,4.587,11.063,10.244,8.646l10.089-4.315c3.347-1.441,5.57,3.653,2.182,5.105l-24.147,10.336
				c-4.404,1.885-4.371,5.269-6.557,14.785c-1.613-1.177-3.963-2.823-4.964-3.515C140.446,227.629,159.342,148.822,161.797,138.584z
				 M374.122,367.633h63.369c8.717,0,9.703,5.175,11.031,8.614h-85.43C364.422,372.802,365.392,367.633,374.122,367.633z
				 M357.297,391.247h97.02l9.266,23.985H348.03L357.297,391.247z M363.358,492.946c0,2.23-1.815,4.046-4.045,4.046h-12.829
				c-2.23,0-4.046-1.815-4.046-4.046v-8.413h20.92V492.946z M377.916,496.992c0.558-2.565,0.443-3.357,0.443-12.459h55.202
				c0,9.038-0.118,9.883,0.442,12.459H377.916z M469.481,492.946c0,2.23-1.815,4.046-4.045,4.046
				c-18.896,0-16.874,1.576-16.874-12.459h20.919V492.946z M335.456,469.532c-5.793-0.319-8.712-4.408-8.712-8.523v-22.254h0.001
				c0-4.699,3.822-8.522,8.522-8.522c4.406,0,132.014,0,144.285,0c4.699,0,8.522,3.822,8.522,8.522v22.254
				c0,4.699-3.822,8.523-8.522,8.523C474.563,469.532,344.922,469.532,335.456,469.532z"/>
			<path d="M272.222,334.122c-18.304,5.414-18.216,5.069-20.023,7.003c-0.628,0.673-15.312,16.661-8.331,32.298
				c6.496,14.55,14.46,11.21,19.433,14.303c2.948,1.832,6.198,2.703,9.572,1.823c8.283-2.152,9.054-12.453,12.555-12.537
				C308.87,376.435,299.378,326.109,272.222,334.122z M283.582,362.107c-8.79,0.89-12.692,7.622-14.855,11.516
				c-8.542-4.053-8.292,0.114-11.162-6.314c-2.055-4.603,1.838-11.172,4.405-14.51l14.505-4.29
				C281.473,347.033,284.644,357.45,283.582,362.107z"/>
			<path d="M269.818,245.295c-24.541,7.258-23.946,6.724-25.804,8.714c-0.798,0.855-19.454,21.161-10.747,40.664
				c8.235,18.44,17.565,13.387,25.171,18.115c3.373,2.096,7.071,3.133,10.865,2.148c10.349-2.688,10.278-16.793,17.5-16.97
				C314.478,297.283,302.528,235.63,269.818,245.295z M286.204,282.975c-13.265,0.454-17.838,11.492-20.802,16.499
				c-4.471-2.573-8.237-3.309-11.039-3.855c-3.664-0.716-4.648-0.908-7.396-7.063c-3.71-8.31,3.791-19.047,6.82-22.876l20.285-5.999
				C285.095,256.415,289.504,278.521,286.204,282.975z"/>
			<path d="M208.502,248.853c-0.227-4.721-6-8.048-11.777-4.98c-5.776,3.068-5.878,19.683,6.311,21.731
				c0,0,11.139,3.189,12.514-3.449C216.927,255.517,208.732,253.573,208.502,248.853z"/>
			<path d="M56.333,91.811c0,0,11.139,3.189,12.514-3.449c1.377-6.637-6.817-8.582-7.047-13.302c-0.227-4.721-6-8.047-11.777-4.98
				C44.245,73.148,44.144,89.762,56.333,91.811z"/>
			<path d="M328.823,333.709c-0.227-4.721-6-8.048-11.777-4.98c-5.776,3.068-5.878,19.683,6.311,21.731
				c0,0,11.139,3.189,12.514-3.449C337.248,340.374,329.052,338.429,328.823,333.709z"/>
			<path d="M218.87,324.193c0,0-5.616,5.975-1.884,8.992c3.728,3.017,7.608-1.509,10.653-0.124c3.043,1.389,7.008-1.168,6.95-5.795
				C234.531,322.635,224.11,317.186,218.87,324.193z"/>
			<path d="M306.232,78.338H266.59c-4.143,0-7.5,3.357-7.5,7.5s3.357,7.5,7.5,7.5h44.574c3.186,0,6.025-2.013,7.078-5.02
				c3.628-10.354,13.437-17.309,24.409-17.309c12.418,0,14.698,7.831,21.25,3.397c2.408-1.628,3.659-4.503,3.208-7.375
				c-2.16-13.818,8.567-26.051,22.253-26.051c13.609,0,24.258,12.08,22.29,25.741c-1.019,7.062,7.517,11.413,12.638,6.463
				c12.655-12.239,33.72-3.996,35.081,13.243c0.308,3.9,3.563,6.909,7.477,6.909h37.649c4.143,0,7.5-3.357,7.5-7.5
				c0-4.143-3.357-7.5-7.5-7.5h-31.417c-5.669-19.846-27.392-31.255-47.227-23.611c-3.965-16.47-18.821-28.746-36.491-28.746
				c-18.536,0-33.977,13.51-36.994,31.199C333.75,52.625,314.73,61.647,306.232,78.338z"/>
			<path d="M240.05,40.983h36.817c3.913,0,7.168-3.008,7.477-6.909c1.363-17.249,22.435-25.475,35.082-13.243
				c2.978,2.879,7.727,2.799,10.606-0.178c2.879-2.978,2.8-7.727-0.178-10.607c-19.448-18.808-51.844-9.882-59.219,15.936h-30.587
				c-4.143,0-7.5,3.357-7.5,7.5C232.55,37.624,235.908,40.983,240.05,40.983z"/>
			<circle cx="352.593" cy="449.61" r="9.447"/>
			<circle cx="459.02" cy="449.61" r="9.447"/>
			<path d="M430.275,442.113h-49.33c-4.142,0-7.5,3.358-7.5,7.5c0,4.143,3.357,7.5,7.5,7.5h49.33c4.143,0,7.5-3.357,7.5-7.5
				C437.775,445.472,434.418,442.113,430.275,442.113z"/>
		</g>
	</g>
</g>
<g>
</g>
<g>
</g>
<g>
</g>
<g>
</g>
<g>
</g>
<g>
</g>
<g>
</g>
<g>
</g>
<g>
</g>
<g>
</g>
<g>
</g>
<g>
</g>
<g>
</g>
<g>
</g>
<g>
</g>
</svg>
