<?xml version="1.0" encoding="iso-8859-1"?>
<!-- Generator: Adobe Illustrator 17.1.0, SVG Export Plug-In . SVG Version: 6.00 Build 0)  -->
<!DOCTYPE svg PUBLIC "-//W3C//DTD SVG 1.1//EN" "http://www.w3.org/Graphics/SVG/1.1/DTD/svg11.dtd">
<svg version="1.1" id="Capa_1" xmlns="http://www.w3.org/2000/svg" xmlns:xlink="http://www.w3.org/1999/xlink" x="0px" y="0px"
	 viewBox="0 0 450.745 450.745" style="enable-background:new 0 0 450.745 450.745;" xml:space="preserve">
<g>
	<path d="M210.003,277.586l-16.985-13.226c-1.024-0.816-1.117-1.913-1.117-2.429v-30.337c0-5.514-4.486-10-10-10h-19.472
		c-5.246,0-9.969,4.046-9.969,9.206c0,1.931-1.366,0.918-1.366,0.918l-37.553-29.239c-1.888-1.471-4.317-2.28-6.843-2.28
		c-2.524,0-4.954,0.81-6.843,2.279L3.392,277.588c-4.342,3.384-3.424,7.3-3.039,8.419c0.385,1.119,2.067,4.771,7.571,4.771h8.277
		c0,0,2.311,0.058,2.311,2.474c0,21.979,0,87.914,0,87.914c0,5.514,4.486,10,10,10h53.582c5.514,0,10-4.486,10-10V357.37
		c0-2.276-0.063-5.958-0.142-8.205c-0.002-0.063-0.042-6.414,3.787-10.378c2.327-2.408,5.703-3.579,10.319-3.579
		c14.509,0,15.286,11.773,15.294,14.088c-0.027,2.221-0.05,5.853-0.05,8.074v23.796c0,5.514,4.486,10,10,10h53.582
		c5.514,0,10-4.486,10-10c0,0,0-66.686,0-88.914c0-1.416,1.441-1.474,1.441-1.474h9.146c5.505,0,7.188-3.653,7.572-4.772
		C213.43,284.887,214.347,280.971,210.003,277.586z M164.429,234.252c0-0.666,0.689-0.657,0.689-0.657h14.167
		c0,0,0.615-0.051,0.615,0.595c0,4.91,0,13.922,0,18.563c0,0.938-0.695,0.548-0.695,0.548l-13.93-10.594
		c-0.336-0.301-0.847-0.756-0.847-1.67C164.429,241.036,164.429,235.948,164.429,234.252z M182.885,288.779v86.516
		c0,0,0.608,3.872-4.142,3.872c-10.719,0-31.121,0-42.875,0c-2.563,0-2.565-1.997-2.565-1.997V357.37c0-2.18,0.022-5.746,0.05-7.926
		c0.014-1.134-0.078-11.29-7.518-18.821c-4.859-4.92-11.514-7.415-19.776-7.415c-7.931,0-14.307,2.436-18.949,7.241
		c-7.327,7.584-7.189,17.969-7.149,19.13c0.073,2.134,0.134,5.629,0.134,7.791v19.216c0,0,0.191,2.58-2.726,2.58
		c-11.714,0-32.265,0-42.348,0c-5.027,0-4.509-5.08-4.509-5.08v-85.308c0-4.419-2.882-8.179-6.864-9.496
		c-0.732-0.243-1.842-0.738-0.396-1.949l81.814-63.703c0,0,1.115-0.836,1.632-0.836c0.795,0,1.893,1.039,1.893,1.039l81.813,63.701
		c1.09,1.26,0.189,1.483-0.495,1.696C185.843,280.5,182.885,284.301,182.885,288.779z"/>
	<path d="M450.736,314.71c-0.147-2.224-3.87-55.122-26.529-113.08c-13.382-34.228-30.624-63.001-51.248-85.518
		c-26-28.388-57.416-46.834-93.373-54.824c-73.223-16.273-116.589,9.725-140.079,34.398c-25.368,26.646-33.244,56.808-33.567,58.079
		l-0.123,0.619c-0.807,5.584,1.441,10.063,5.729,11.41c5.01,1.578,9.387-2.159,10.211-2.923l0.104-0.098
		c25.126-24.412,53.23-29.457,78.224-22.962c0.879,0.229,2.453,0.859-0.044,2.742c-10.753,7.534-13.84,18.363-15.02,27.624
		c-1.467,11.514,1.415,21.288,1.862,22.71c1.654,5.818,6.143,7.731,9.645,7.052c3.848-0.754,6.277-4.33,5.775-8.501l0.065,0.118
		l-0.075-0.283c0.002-1.074,0.629-7.883,15.701-13.188c31.945-11.245,48.749,21.192,51.45,26.97
		c18.025,45.788,10.077,107.101-41.698,163.929c-0.433,0.475-3.293,3.186-2.599,7.362c0.679,4.086,4.398,6.935,8.505,6.337
		c8.382-1.225,12.594,1.268,18.418,4.72c5.452,3.23,12.021,7.124,22.039,7.124c1.931,0,3.99-0.145,6.193-0.467
		c13.639-1.991,20.023-8.901,25.153-14.454c4.594-4.972,7.913-8.564,16.302-9.79c8.391-1.225,12.599,1.268,18.422,4.72
		c6.504,3.854,14.602,8.654,28.235,6.657c4.099-0.599,6.936-4.406,6.337-8.505c-0.599-4.1-4.418-6.935-8.505-6.337
		c-8.391,1.226-12.597-1.269-18.421-4.72c-6.503-3.853-14.591-8.649-28.236-6.657c-13.639,1.991-20.022,8.901-25.151,14.453
		c-4.595,4.973-7.914,8.565-16.304,9.791c-8.387,1.222-12.595-1.269-18.418-4.72c-3.538-2.097-7.551-4.47-12.669-5.879
		c-0.826-0.228-2.261-0.782-0.821-2.732c30.306-36.497,44.419-74.326,44.229-114.071c-0.082-17.343-3.328-34.288-9.348-49.901
		c-0.069-0.248-0.149-0.496-0.253-0.739c-0.03-0.07-0.158-0.367-0.378-0.843c-6.793-16.984-16.885-32.34-29.788-44.836
		c-18.833-18.238-42.21-28.94-65.823-30.135c-21.339-1.084-41.8,5.458-59.933,19.018c-1.455,1.088-4.063,2.791-2.754-0.433
		c4.336-10.673,12.752-26.163,26.353-40.336c31.047-32.352,74.265-42.649,128.45-30.608
		c60.999,13.556,106.735,58.209,135.939,132.721c17.979,45.871,23.65,88.224,25.204,103.085c0.181,1.425-0.797,1.526-1.246,1.575
		c-3.505,0.379-6.275-0.95-10.737-3.298c-5.874-3.091-13.919-7.326-25.276-3.642c-11.355,3.683-15.384,11.834-18.326,17.786
		c-2.816,5.695-4.397,8.507-9.508,10.166c-5.113,1.656-8.04,0.308-13.661-2.65c-5.876-3.093-13.919-7.326-25.276-3.643
		c-3.939,1.277-6.098,5.508-4.819,9.448c1.278,3.94,5.51,6.101,9.448,4.819c5.107-1.653,8.039-0.309,13.661,2.65
		c4.252,2.237,9.642,5.074,16.6,5.074c2.655,0,5.54-0.413,8.676-1.431c11.354-3.684,15.384-11.835,18.326-17.786
		c2.815-5.696,4.396-8.508,9.508-10.166c5.111-1.655,8.041-0.309,13.664,2.65c5.876,3.093,13.777,6.845,25.278,3.642
		C450.118,322.419,450.843,316.336,450.736,314.71z M241.141,164.818c-8.64-1.824-17.727-1.364-27.133,1.947
		c-7.651,2.693-12.854,6.008-16.384,9.368c-0.392,0.374-1.089,0.745-1.11-0.05c0.021-8.581,3.086-21.57,18.866-29.022
		c0.59-0.279,1.676-0.767,2.97-0.233c9.228,4.584,16.59,10.123,23.989,17.288C242.81,164.571,242.806,165.169,241.141,164.818z"/>
</g>
<g>
</g>
<g>
</g>
<g>
</g>
<g>
</g>
<g>
</g>
<g>
</g>
<g>
</g>
<g>
</g>
<g>
</g>
<g>
</g>
<g>
</g>
<g>
</g>
<g>
</g>
<g>
</g>
<g>
</g>
</svg>
