<?xml version="1.0" encoding="iso-8859-1"?>
<!-- Generator: Adobe Illustrator 19.0.0, SVG Export Plug-In . SVG Version: 6.00 Build 0)  -->
<svg version="1.1" id="Layer_1" xmlns="http://www.w3.org/2000/svg" xmlns:xlink="http://www.w3.org/1999/xlink" x="0px" y="0px"
	 viewBox="0 0 488 488" style="enable-background:new 0 0 488 488;" xml:space="preserve">
<g transform="translate(0 -540.36)">
	<g>
		<g>
			<path d="M416.4,611.96L416.4,611.96c-46.2-46.2-107.4-71.6-172.4-71.6s-126.2,25.4-172.4,71.6C25.4,658.16,0,719.36,0,784.36
				s25.4,126.2,71.6,172.4c46.2,46.2,107.4,71.6,172.4,71.6s126.2-25.4,172.4-71.6c46.2-46.2,71.6-107.4,71.6-172.4
				S462.6,658.16,416.4,611.96z M31.5,855.36h177.3l-14.5,37.5c-1,2.6-0.9,5.5,0.3,8l18,36.8l-8.7,26.6c-0.8,2.4-0.6,4.9,0.4,7.2
				l16.1,35.7C132.1,997.86,58.9,937.06,31.5,855.36z M235.7,961.76c-1.1,1.7-1.7,3.6-1.7,5.6v21.2l-9.8-21.7l8.7-26.8
				c0.8-2.5,0.6-5.2-0.5-7.5l-17.9-36.5l18.2-47c1.2-3.1,0.8-6.5-1.1-9.3c-1.9-2.8-5-4.4-8.3-4.4H183v-81.4h121.8v81.4h-40.2l0,0
				c-4.1,0-7.8,2.5-9.3,6.3l-20.6,51.1c-1.1,2.7-0.9,5.7,0.4,8.3l17.9,35.1L235.7,961.76z M178.7,733.96l65.3-39.3l65.3,39.3H178.7z
				 M254,1008.16L254,1008.16v-37.8l18.9-28c2-3,2.3-6.9,0.6-10.1l-18.5-36.3l16.4-40.6h185.1
				C427.7,941.16,348.4,1003.96,254,1008.16z M324.8,835.36v-81.4h20.5c4.5,0,8.4-3,9.6-7.3s-0.6-8.9-4.5-11.2l-101.4-61
				c-3.2-1.9-7.1-1.9-10.3,0l-101.4,61c-3.9,2.3-5.7,6.9-4.5,11.2s5.1,7.3,9.6,7.3h20.5v81.4H25.6c-3.8-16.4-5.9-33.4-5.9-51
				c0.3-123.5,100.8-224,224.3-224s224,100.5,224,224c0,17.5-2,34.6-5.9,51H324.8z"/>
			<path d="M413.5,756.86l-12.9-12.9l13-13.5c3.7-3.9,3.7-10,0-13.9l-19.8-20.6c-3.8-4-10.1-4.1-14.1-0.3s-4.1,10.1-0.3,14.1
				l13.1,13.6l-13.1,13.6c-3.8,3.9-3.8,10.1,0.1,14l12.9,12.9l-13,13.5c-3.7,3.9-3.7,10,0,13.9l19.8,20.6c2,2.1,4.6,3.1,7.2,3.1
				c2.4,0,4.9-0.9,6.9-2.8c4-3.8,4.1-10.1,0.3-14.1l-13.1-13.6l13.1-13.6C417.4,766.96,417.4,760.76,413.5,756.86z"/>
			<path d="M108.6,736.96l-13.1-13.6l13.1-13.6c3.8-3.9,3.7-10.3-0.3-14.1c-3.9-3.8-10.3-3.7-14.1,0.3l-19.8,20.6
				c-3.7,3.9-3.7,10,0,13.9l13,13.5l-12.9,12.9c-3.8,3.8-3.9,10.1-0.1,14l13.1,13.6l-13.1,13.6c-3.8,3.9-3.7,10.3,0.3,14.1
				c1.9,1.9,4.4,2.8,6.9,2.8c2.7,0,5.3-1,7.2-3.1l19.8-20.6c3.7-3.9,3.7-10,0-13.9l-13-13.5l12.9-12.9
				C112.3,747.16,112.4,740.86,108.6,736.96z"/>
		</g>
	</g>
</g>
<g>
</g>
<g>
</g>
<g>
</g>
<g>
</g>
<g>
</g>
<g>
</g>
<g>
</g>
<g>
</g>
<g>
</g>
<g>
</g>
<g>
</g>
<g>
</g>
<g>
</g>
<g>
</g>
<g>
</g>
</svg>
